<?xml version="1.0" standalone="no"?>
<!DOCTYPE svg PUBLIC "-//W3C//DTD SVG 20010904//EN"
 "http://www.w3.org/TR/2001/REC-SVG-20010904/DTD/svg10.dtd">
<svg version="1.0" xmlns="http://www.w3.org/2000/svg"
 width="343.000000pt" height="381.000000pt" viewBox="0 0 343.000000 381.000000"
 preserveAspectRatio="xMidYMid meet">
<metadata>
Created by potrace 1.16, written by Peter Selinger 2001-2019
</metadata>
<g transform="translate(0.000000,381.000000) scale(0.100000,-0.100000)"
fill="#000000" stroke="none">
<path d="M2070 3605 c-791 -249 -1227 -440 -1546 -678 -314 -234 -384 -395
-384 -880 0 -287 34 -547 120 -927 70 -305 225 -856 256 -909 31 -53 88 -85
159 -89 58 -4 140 19 1276 358 799 238 1229 371 1258 388 59 36 91 96 91 171
0 80 -726 2516 -765 2567 -39 51 -92 74 -167 73 -49 -1 -116 -17 -298 -74z
m18 -961 c92 -19 156 -45 239 -96 146 -91 215 -224 215 -411 0 -204 -95 -352
-287 -448 -115 -57 -190 -69 -393 -66 -134 1 -172 -1 -186 -12 -15 -13 -16
-29 -10 -145 4 -77 12 -144 20 -162 9 -18 36 -43 70 -63 93 -57 114 -102 73
-155 -46 -59 -140 -85 -335 -93 -224 -10 -406 22 -470 82 -63 60 -54 115 28
168 102 66 93 9 96 588 2 437 0 513 -12 538 -12 22 -32 36 -86 56 -87 33 -112
62 -108 123 2 34 9 49 28 64 24 17 52 19 350 24 179 2 357 8 395 13 123 14
291 12 373 -5z"/>
<path d="M1736 2399 c-68 -16 -66 -8 -66 -258 0 -124 4 -232 9 -239 12 -20 87
-34 137 -26 24 3 67 20 96 38 86 51 118 116 118 237 0 188 -119 289 -294 248z"/>
</g>
</svg>
