<?xml version="1.0" standalone="no"?>
<!DOCTYPE svg PUBLIC "-//W3C//DTD SVG 20010904//EN"
 "http://www.w3.org/TR/2001/REC-SVG-20010904/DTD/svg10.dtd">
<svg version="1.0" xmlns="http://www.w3.org/2000/svg"
 width="247.000000pt" height="189.000000pt" viewBox="0 0 247.000000 189.000000"
 preserveAspectRatio="xMidYMid meet">
<metadata>
Created by potrace 1.16, written by Peter Selinger 2001-2019
</metadata>
<g transform="translate(0.000000,189.000000) scale(0.100000,-0.100000)"
fill="#000000" stroke="none">
<path d="M705 1621 c-242 -59 -448 -261 -516 -506 -19 -67 -19 -303 0 -370 67
-239 267 -439 506 -506 67 -19 303 -19 370 0 179 50 357 189 439 345 26 49 26
66 0 66 -8 0 -14 6 -14 13 0 6 -14 -12 -30 -41 -90 -164 -255 -292 -424 -328
-78 -17 -234 -17 -312 0 -226 48 -432 254 -480 480 -17 78 -17 234 0 312 38
178 182 356 353 436 164 78 402 78 566 0 70 -33 167 -107 213 -163 l32 -39 16
26 c16 24 16 26 -11 59 -79 96 -237 189 -370 219 -93 21 -247 20 -338 -3z"/>
<path d="M1850 1380 c-44 -44 -6 -130 58 -130 37 0 52 17 52 58 0 24 -8 42
-29 63 -35 34 -54 36 -81 9z"/>
<path d="M535 1307 c-26 -9 -39 -35 -30 -58 3 -8 20 -23 37 -34 18 -11 36 -33
40 -50 10 -34 2 -328 -12 -426 -7 -53 -14 -68 -39 -90 -34 -28 -40 -59 -15
-83 22 -23 525 -24 600 -1 164 49 226 240 113 348 -22 20 -46 37 -53 37 -8 0
-19 7 -26 15 -10 12 -7 21 18 49 38 44 56 97 49 151 -6 57 -37 98 -95 127 -46
22 -55 23 -304 23 -142 0 -269 -4 -283 -8z m380 -103 c41 -16 59 -118 30 -174
-19 -37 -72 -51 -92 -24 -16 22 -18 156 -3 185 11 19 35 24 65 13z m28 -335
c51 -39 60 -146 16 -190 -23 -23 -81 -26 -99 -4 -7 8 -15 52 -17 98 -5 69 -3
86 11 100 23 23 58 21 89 -4z"/>
<path d="M1528 1239 c-28 -16 -24 -84 7 -114 62 -63 132 3 90 84 -20 40 -60
52 -97 30z"/>
<path d="M2160 1139 c-98 -134 -241 -230 -396 -264 -56 -13 -106 -16 -190 -13
-63 2 -114 3 -114 1 0 -15 34 -64 50 -73 33 -18 167 -40 238 -40 177 1 322 82
423 238 62 94 74 131 59 177 -6 19 -15 35 -19 35 -3 0 -27 -28 -51 -61z"/>
</g>
</svg>
